<mxfile host="65bd71144e">
    <diagram name="Qdrant AI Bootstrapping - Simplified Knowledge Architecture" id="qdrant-simple-arch">
        <mxGraphModel dx="1460" dy="716" grid="1" gridSize="10" guides="1" tooltips="1" connect="1" arrows="1" fold="1" page="1" pageScale="1" pageWidth="1400" pageHeight="1000" math="0" shadow="0">
            <root>
                <mxCell id="0"/>
                <mxCell id="1" parent="0"/>
                <mxCell id="title" value="🧠 Qdrant Vector DB as AI &quot;Bootstrapping&quot; Brain - Knowledge Architecture" style="text;html=1;strokeColor=none;fillColor=none;align=center;verticalAlign=middle;whiteSpace=wrap;rounded=0;fontSize=18;fontStyle=1;fontColor=#1f5582;" parent="1" vertex="1">
                    <mxGeometry x="340" y="4" width="730" height="40" as="geometry"/>
                </mxCell>
                <mxCell id="qdrant-core" value="🧠 Qdrant Vector DB&lt;br&gt;AI Bootstrapping Brain&lt;br&gt;&lt;br&gt;Vectorized Knowledge Storage" style="ellipse;whiteSpace=wrap;html=1;fontSize=16;fontStyle=1;fillColor=#e1d5e7;strokeColor=#9673a6;strokeWidth=4;" parent="1" vertex="1">
                    <mxGeometry x="656" y="400" width="200" height="150" as="geometry"/>
                </mxCell>
                <mxCell id="knowledge-layer-title" value="📚 Knowledge Ingestion Layer - Two Main Sources" style="text;html=1;strokeColor=none;fillColor=none;align=center;verticalAlign=middle;whiteSpace=wrap;rounded=0;fontSize=16;fontStyle=1;fontColor=#d6b656;" parent="1" vertex="1">
                    <mxGeometry x="546" y="60" width="530" height="30" as="geometry"/>
                </mxCell>
                <mxCell id="ai-generated-section" value="1️⃣ AI Self-Constructed Knowledge" style="rounded=1;whiteSpace=wrap;html=1;fontSize=14;fontStyle=1;fillColor=#fff2cc;strokeColor=#d6b656;strokeWidth=2;" parent="1" vertex="1">
                    <mxGeometry x="6" y="131" width="300" height="40" as="geometry"/>
                </mxCell>
                <mxCell id="epistemology-note" value="💭 Epistemology (philosophy of knowledge):&lt;br&gt;&lt;br&gt;Constructivism holds that we don&#39;t passively receive information&lt;br&gt;about the world; instead, we actively construct our understanding&lt;br&gt;of reality based on prior knowledge, culture, and context.&lt;br&gt;&lt;br&gt;This contrasts with realism (truth exists independent of us)&lt;br&gt;or empiricism (knowledge comes only from sensory experience)." style="rounded=1;whiteSpace=wrap;html=1;fontSize=9;fillColor=#f8f8f8;strokeColor=#cccccc;strokeWidth=1;fontStyle=2;" parent="1" vertex="1">
                    <mxGeometry x="23" width="280" height="115" as="geometry"/>
                </mxCell>
                <mxCell id="existing-md-section" value="2️⃣ Existing Markdown Knowledge as Seed Data" style="rounded=1;whiteSpace=wrap;html=1;fontSize=14;fontStyle=1;fillColor=#d5e8d4;strokeColor=#82b366;strokeWidth=2;" parent="1" vertex="1">
                    <mxGeometry x="1080" y="120" width="300" height="40" as="geometry"/>
                </mxCell>
                <mxCell id="realism-note" value="🏛️ Realism&amp;nbsp;&lt;span style=&quot;color: rgb(0, 0, 0);&quot;&gt;(philosophy of knowledge)&lt;/span&gt;&lt;br&gt;&lt;br&gt;The world exists objectively, with truths and structures&lt;br&gt;independent of human perception.&lt;br&gt;&lt;br&gt;Example: Gravity is real whether or not humans&lt;br&gt;experience or describe it." style="rounded=1;whiteSpace=wrap;html=1;fontSize=9;fillColor=#f8f8f8;strokeColor=#cccccc;strokeWidth=1;fontStyle=2;" parent="1" vertex="1">
                    <mxGeometry x="1090" y="7.5" width="280" height="100" as="geometry"/>
                </mxCell>
                <mxCell id="ai-generates" value="🤖 AI Generates&lt;br&gt;New Knowledge&lt;br&gt;&lt;br&gt;• Component patterns&lt;br&gt;• PDCA processes&lt;br&gt;• Recovery procedures&lt;br&gt;• Architecture docs&lt;br&gt;• Code patterns" style="rounded=1;whiteSpace=wrap;html=1;fontSize=11;fillColor=#fff2cc;strokeColor=#d6b656;" parent="1" vertex="1">
                    <mxGeometry x="3" y="240" width="160" height="140" as="geometry"/>
                </mxCell>
                <mxCell id="md-local" value="📝 Written to Local .md&lt;br&gt;&lt;br&gt;Repository/Branch:&lt;br&gt;• components/&lt;br&gt;• docs/&lt;br&gt;• scrum.pmo/&lt;br&gt;• recovery.analysis/&lt;br&gt;&lt;br&gt;🔗 Local Path = UUID" style="rounded=1;whiteSpace=wrap;html=1;fontSize=10;fillColor=#ffe6cc;strokeColor=#d79b00;" parent="1" vertex="1">
                    <mxGeometry x="370" y="250" width="140" height="140" as="geometry"/>
                </mxCell>
                <mxCell id="github-push" value="☁️ Pushed to GitHub&lt;br&gt;&lt;br&gt;Same .md files:&lt;br&gt;• github.com/repo/&lt;br&gt;• Same structure&lt;br&gt;• Version controlled&lt;br&gt;&lt;br&gt;🔗 GitHub URL = UUID" style="rounded=1;whiteSpace=wrap;html=1;fontSize=10;fillColor=#f8cecc;strokeColor=#b85450;" parent="1" vertex="1">
                    <mxGeometry x="370" y="101" width="140" height="140" as="geometry"/>
                </mxCell>
                <mxCell id="existing-local" value="📁 Existing Local .md&lt;br&gt;&lt;br&gt;Repository/Branch:&lt;br&gt;• README.md&lt;br&gt;• components/*/*.md&lt;br&gt;• docs/*.md&lt;br&gt;• scrum.pmo/*.md&lt;br&gt;&lt;br&gt;🔗 Local Path = UUID" style="rounded=1;whiteSpace=wrap;html=1;fontSize=10;fillColor=#d5e8d4;strokeColor=#82b366;" parent="1" vertex="1">
                    <mxGeometry x="926" y="160" width="140" height="140" as="geometry"/>
                </mxCell>
                <mxCell id="existing-github" value="☁️ Same Files on GitHub&lt;br&gt;&lt;br&gt;GitHub URLs:&lt;br&gt;• github.com/repo/blob/&lt;br&gt;• Same file paths&lt;br&gt;• Version history&lt;br&gt;&lt;br&gt;🔗 GitHub URL = UUID" style="rounded=1;whiteSpace=wrap;html=1;fontSize=10;fillColor=#dae8fc;strokeColor=#6c8ebf;" parent="1" vertex="1">
                    <mxGeometry x="1256" y="240" width="140" height="140" as="geometry"/>
                </mxCell>
                <mxCell id="dual-uuid-concept" value="🔑 Dual UUID/Fingerprint System&lt;br&gt;&lt;br&gt;Every knowledge piece has TWO references:&lt;br&gt;1️⃣ Local: /path/to/file.md&lt;br&gt;2️⃣ GitHub: github.com/org/repo/blob/branch/path/to/file.md&lt;br&gt;&lt;br&gt;This enables:&lt;br&gt;• Knowledge evolution tracking&lt;br&gt;• Reference stability&lt;br&gt;• Cross-platform access" style="rounded=1;whiteSpace=wrap;html=1;fontSize=11;fillColor=#e6ffcc;strokeColor=#82b366;strokeWidth=2;" parent="1" vertex="1">
                    <mxGeometry x="630" y="130" width="240" height="170" as="geometry"/>
                </mxCell>
                <mxCell id="continuous-learning" value="🔄 Continuous Learning &amp; Optimization Loop&lt;br&gt;&lt;br&gt;Web4Articles produces new knowledge&lt;br&gt;↓&lt;br&gt;Feeds back into Qdrant brain&lt;br&gt;↓&lt;br&gt;Improves future AI responses" style="rounded=1;whiteSpace=wrap;html=1;fontSize=12;fontStyle=1;fillColor=#d0cece;strokeColor=#666666;strokeWidth=2;" parent="1" vertex="1">
                    <mxGeometry x="393" y="700" width="280" height="120" as="geometry"/>
                </mxCell>
                <mxCell id="ai-processing" value="🤖 AI Processing Engine&lt;br&gt;&lt;br&gt;Vector Search &amp; Retrieval:&lt;br&gt;• Semantic similarity&lt;br&gt;• Context understanding&lt;br&gt;• Pattern matching&lt;br&gt;• Knowledge synthesis" style="rounded=1;whiteSpace=wrap;html=1;fontSize=12;fillColor=#ffe6cc;strokeColor=#d79b00;" parent="1" vertex="1">
                    <mxGeometry x="926" y="470" width="200" height="150" as="geometry"/>
                </mxCell>
                <mxCell id="bootstrap-output" value="⚡ AI Bootstrapping Output&lt;br&gt;&lt;br&gt;• Agent initialization&lt;br&gt;• Component generation&lt;br&gt;• Process automation&lt;br&gt;• Recovery procedures&lt;br&gt;• Documentation&lt;br&gt;• Code scaffolding" style="rounded=1;whiteSpace=wrap;html=1;fontSize=12;fillColor=#f8cecc;strokeColor=#b85450;" parent="1" vertex="1">
                    <mxGeometry x="1150" y="690" width="200" height="120" as="geometry"/>
                </mxCell>
                <mxCell id="ingestion-flows-title" value="⚡ Cognitive Processing Unit" style="text;html=1;strokeColor=none;fillColor=none;align=left;verticalAlign=middle;whiteSpace=wrap;rounded=0;fontSize=21;fontStyle=1;" parent="1" vertex="1">
                    <mxGeometry x="700" y="590" width="200" height="30" as="geometry"/>
                </mxCell>
                <mxCell id="generation-flows-title" value="📤 Knowledge Generation Flows" style="text;html=1;strokeColor=none;fillColor=none;align=right;verticalAlign=middle;whiteSpace=wrap;rounded=0;fontSize=14;fontStyle=1;" parent="1" vertex="1">
                    <mxGeometry x="1036" y="320" width="200" height="30" as="geometry"/>
                </mxCell>
                <mxCell id="flow-ai-to-local" style="edgeStyle=orthogonalEdgeStyle;rounded=0;orthogonalLoop=1;jettySize=auto;html=1;strokeColor=#d6b656;strokeWidth=3;dashed=1;" parent="1" source="ai-generates" target="md-local" edge="1">
                    <mxGeometry relative="1" as="geometry">
                        <Array as="points">
                            <mxPoint x="320" y="310"/>
                            <mxPoint x="320" y="310"/>
                        </Array>
                    </mxGeometry>
                </mxCell>
                <mxCell id="flow-local-to-qdrant" style="edgeStyle=orthogonalEdgeStyle;rounded=0;orthogonalLoop=1;jettySize=auto;html=1;strokeColor=#82b366;strokeWidth=3;entryX=0;entryY=0.5;entryDx=0;entryDy=0;exitX=0.623;exitY=1.016;exitDx=0;exitDy=0;exitPerimeter=0;" parent="1" source="ai-generates" target="qdrant-core" edge="1">
                    <mxGeometry relative="1" as="geometry">
                        <Array as="points">
                            <mxPoint x="103" y="410"/>
                            <mxPoint x="530" y="410"/>
                            <mxPoint x="530" y="475"/>
                        </Array>
                        <mxPoint x="630" y="430" as="targetPoint"/>
                    </mxGeometry>
                </mxCell>
                <mxCell id="flow-existing-local-to-qdrant" style="edgeStyle=orthogonalEdgeStyle;rounded=0;orthogonalLoop=1;jettySize=auto;html=1;strokeColor=#82b366;strokeWidth=3;" parent="1" source="existing-local" target="qdrant-core" edge="1">
                    <mxGeometry relative="1" as="geometry">
                        <Array as="points">
                            <mxPoint x="996" y="450"/>
                        </Array>
                    </mxGeometry>
                </mxCell>
                <mxCell id="flow-existing-github-to-qdrant" style="edgeStyle=orthogonalEdgeStyle;rounded=0;orthogonalLoop=1;jettySize=auto;html=1;strokeColor=#6c8ebf;strokeWidth=3;" parent="1" source="existing-github" target="qdrant-core" edge="1">
                    <mxGeometry relative="1" as="geometry">
                        <Array as="points">
                            <mxPoint x="1326" y="450"/>
                        </Array>
                    </mxGeometry>
                </mxCell>
                <mxCell id="flow-qdrant-to-ai" style="edgeStyle=orthogonalEdgeStyle;rounded=0;orthogonalLoop=1;jettySize=auto;html=1;strokeColor=#9673a6;strokeWidth=4;exitX=0.5;exitY=1;exitDx=0;exitDy=0;" parent="1" source="qdrant-core" target="ai-processing" edge="1">
                    <mxGeometry relative="1" as="geometry"/>
                </mxCell>
                <mxCell id="flow-ai-to-output" style="edgeStyle=orthogonalEdgeStyle;rounded=0;orthogonalLoop=1;jettySize=auto;html=1;strokeColor=#d79b00;strokeWidth=3;" parent="1" source="ai-processing" target="bootstrap-output" edge="1">
                    <mxGeometry relative="1" as="geometry"/>
                </mxCell>
                <mxCell id="flow-output-to-ai-gen" style="edgeStyle=orthogonalEdgeStyle;rounded=0;orthogonalLoop=1;jettySize=auto;html=1;strokeColor=#b85450;strokeWidth=3;dashed=1;exitX=0;exitY=0.5;exitDx=0;exitDy=0;" parent="1" source="continuous-learning" target="ai-generates" edge="1">
                    <mxGeometry relative="1" as="geometry">
                        <Array as="points">
                            <mxPoint x="60" y="760"/>
                        </Array>
                    </mxGeometry>
                </mxCell>
                <mxCell id="key-insights-title" value="🎯 Key Architecture Insights" style="text;html=1;strokeColor=none;fillColor=none;align=left;verticalAlign=middle;whiteSpace=wrap;rounded=0;fontSize=14;fontStyle=1;" parent="1" vertex="1">
                    <mxGeometry x="3" y="870" width="250" height="61" as="geometry"/>
                </mxCell>
                <mxCell id="insight1" value="💡 Simple Knowledge Sources: Only 2 main sources - AI-generated and existing Markdown files" style="text;html=1;strokeColor=none;fillColor=none;align=left;verticalAlign=middle;whiteSpace=wrap;rounded=0;fontSize=10;" parent="1" vertex="1">
                    <mxGeometry x="3" y="910" width="400" height="41" as="geometry"/>
                </mxCell>
                <mxCell id="insight2" value="🔗 Dual UUID System: Every knowledge piece has both local path and GitHub URL as fingerprints" style="text;html=1;strokeColor=none;fillColor=none;align=left;verticalAlign=middle;whiteSpace=wrap;rounded=0;fontSize=10;" parent="1" vertex="1">
                    <mxGeometry x="3" y="940" width="400" height="31" as="geometry"/>
                </mxCell>
                <mxCell id="insight3" value="🔄 Self-Reinforcing Loop: AI generates knowledge → stores as .md → feeds back into brain → improves responses" style="text;html=1;strokeColor=none;fillColor=none;align=left;verticalAlign=middle;whiteSpace=wrap;rounded=0;fontSize=10;" parent="1" vertex="1">
                    <mxGeometry x="3" y="971" width="400" height="20" as="geometry"/>
                </mxCell>
                <mxCell id="insight4" value="📚 Version Control Integration: Both local and GitHub storage ensures knowledge evolution tracking" style="text;html=1;strokeColor=none;fillColor=none;align=left;verticalAlign=middle;whiteSpace=wrap;rounded=0;fontSize=10;" parent="1" vertex="1">
                    <mxGeometry x="500" y="890" width="400" height="58" as="geometry"/>
                </mxCell>
                <mxCell id="insight5" value="🧠 Unified Vector Storage: All knowledge (new and existing) flows into single Qdrant brain for unified AI processing" style="text;html=1;strokeColor=none;fillColor=none;align=left;verticalAlign=middle;whiteSpace=wrap;rounded=0;fontSize=10;" parent="1" vertex="1">
                    <mxGeometry x="500" y="930" width="400" height="38" as="geometry"/>
                </mxCell>
                <mxCell id="insight6" value="⚡ Bootstrapping Output: AI uses vectorized knowledge to generate agents, components, processes, and documentation" style="text;html=1;strokeColor=none;fillColor=none;align=left;verticalAlign=middle;whiteSpace=wrap;rounded=0;fontSize=10;" parent="1" vertex="1">
                    <mxGeometry x="500" y="968" width="400" height="20" as="geometry"/>
                </mxCell>
                <mxCell id="continuous-learning-label" value="&lt;font style=&quot;font-size: 22px;&quot;&gt;🔄 Continuous Learning drives new AI knowledge generation&lt;/font&gt;" style="text;html=1;strokeColor=default;fillColor=#fff2cc;align=center;verticalAlign=middle;whiteSpace=wrap;rounded=1;fontSize=10;fontStyle=1;strokeWidth=3;" parent="1" vertex="1">
                    <mxGeometry x="150" y="460" width="263" height="140" as="geometry"/>
                </mxCell>
                <mxCell id="flow-labels" value="&lt;font style=&quot;font-size: 11px;&quot;&gt;Flow Legend:&lt;br&gt;🟨 AI Generation (dashed)&lt;br&gt;🟧 Local to GitHub&lt;br&gt;🟩 Local to Qdrant&lt;br&gt;🟦 GitHub to Qdrant&lt;br&gt;🟪 Qdrant to Processing&lt;br&gt;🟡 Learning Loop (thick dashed)&lt;br&gt;⚫ Feedback Loops (dashed)&lt;/font&gt;" style="rounded=1;whiteSpace=wrap;html=1;fontSize=9;fillColor=#f5f5f5;strokeColor=#666666;" parent="1" vertex="1">
                    <mxGeometry x="1096" y="850" width="174" height="141" as="geometry"/>
                </mxCell>
                <mxCell id="3" value="" style="ellipse;whiteSpace=wrap;html=1;fillColor=none;dashed=1;perimeterSpacing=0;shadow=0;strokeColor=light-dark(#0000FF,#EDEDED);" parent="1" vertex="1">
                    <mxGeometry x="592" y="350" width="600" height="340" as="geometry"/>
                </mxCell>
                <mxCell id="2" style="edgeStyle=orthogonalEdgeStyle;rounded=0;orthogonalLoop=1;jettySize=auto;html=1;strokeColor=#b85450;strokeWidth=3;dashed=1;exitX=-0.018;exitY=0.588;exitDx=0;exitDy=0;exitPerimeter=0;" parent="1" source="bootstrap-output" target="continuous-learning" edge="1">
                    <mxGeometry relative="1" as="geometry">
                        <Array as="points"/>
                        <mxPoint x="753" y="880" as="sourcePoint"/>
                        <mxPoint x="750" y="760" as="targetPoint"/>
                    </mxGeometry>
                </mxCell>
                <mxCell id="4" value="📥 Knowledge Ingestion Flows" style="text;html=1;strokeColor=none;fillColor=none;align=left;verticalAlign=middle;whiteSpace=wrap;rounded=0;fontSize=14;fontStyle=1;" parent="1" vertex="1">
                    <mxGeometry x="80" y="720" width="200" height="30" as="geometry"/>
                </mxCell>
                <mxCell id="5" style="edgeStyle=orthogonalEdgeStyle;rounded=0;orthogonalLoop=1;jettySize=auto;html=1;strokeColor=#d6b656;strokeWidth=3;dashed=1;exitX=0.544;exitY=0;exitDx=0;exitDy=0;exitPerimeter=0;entryX=-0.021;entryY=0.35;entryDx=0;entryDy=0;entryPerimeter=0;" edge="1" parent="1" source="ai-generates" target="github-push">
                    <mxGeometry relative="1" as="geometry">
                        <mxPoint x="173" y="201" as="sourcePoint"/>
                        <mxPoint x="400" y="199" as="targetPoint"/>
                        <Array as="points">
                            <mxPoint x="90" y="200"/>
                            <mxPoint x="320" y="200"/>
                            <mxPoint x="320" y="150"/>
                        </Array>
                    </mxGeometry>
                </mxCell>
                <mxCell id="7" value="" style="rounded=1;whiteSpace=wrap;html=1;fillColor=none;dashed=1;dashPattern=1 1;" vertex="1" parent="1">
                    <mxGeometry x="350" y="40" width="180" height="360" as="geometry"/>
                </mxCell>
                <mxCell id="10" value="&lt;b&gt;💾 Reference/Sync/Backup&lt;/b&gt;" style="text;html=1;align=center;verticalAlign=middle;whiteSpace=wrap;rounded=0;" vertex="1" parent="1">
                    <mxGeometry x="360" y="61" width="160" height="30" as="geometry"/>
                </mxCell>
                <mxCell id="13" value="" style="endArrow=classic;html=1;dashed=1;dashPattern=1 4;entryX=0.395;entryY=-0.037;entryDx=0;entryDy=0;entryPerimeter=0;" edge="1" parent="1" target="existing-github">
                    <mxGeometry relative="1" as="geometry">
                        <mxPoint x="510" y="150" as="sourcePoint"/>
                        <mxPoint x="610" y="150" as="targetPoint"/>
                        <Array as="points">
                            <mxPoint x="700" y="110"/>
                            <mxPoint x="910" y="110"/>
                        </Array>
                    </mxGeometry>
                </mxCell>
                <mxCell id="14" value="" style="shape=message;html=1;outlineConnect=0;" vertex="1" parent="13">
                    <mxGeometry width="20" height="14" relative="1" as="geometry">
                        <mxPoint x="-10" y="-7" as="offset"/>
                    </mxGeometry>
                </mxCell>
                <mxCell id="15" value="" style="endArrow=classic;html=1;dashed=1;dashPattern=1 4;entryX=0.098;entryY=1.006;entryDx=0;entryDy=0;entryPerimeter=0;exitX=0.889;exitY=0.806;exitDx=0;exitDy=0;exitPerimeter=0;" edge="1" parent="1" source="7" target="existing-local">
                    <mxGeometry relative="1" as="geometry">
                        <mxPoint x="640" y="320" as="sourcePoint"/>
                        <mxPoint x="740" y="320" as="targetPoint"/>
                        <Array as="points">
                            <mxPoint x="730" y="330"/>
                        </Array>
                    </mxGeometry>
                </mxCell>
                <mxCell id="16" value="" style="shape=message;html=1;outlineConnect=0;" vertex="1" parent="15">
                    <mxGeometry width="20" height="14" relative="1" as="geometry">
                        <mxPoint x="-10" y="-7" as="offset"/>
                    </mxGeometry>
                </mxCell>
            </root>
        </mxGraphModel>
    </diagram>
</mxfile>